# xmcd CD database file
#
# Track frame offsets:
#	150
#	27619
#	65929
#	82699
#	103692
#	126876
#	151476
#
# Disc length: 2256 seconds
#
# Revision: 0
# Processed by: cddbd v1.5.2PL0 Copyright (c) Steve Scherf et al.
# Submitted via: CDex 1.70beta1
#
DISCID=5a08ce07
DTITLE=George Benson - Blue Benson
DYEAR=1900
DGENRE=Jazz
TTITLE0=Billie's Bounce
TTITLE1=Low Down and Dirty
TTITLE2=That Lucky Old Sun (Just Rolls Around Heaven All Day)
TTITLE3=Thunder Walk
TTITLE4=Doobie Doobie Blues
TTITLE5=What's New?
TTITLE6=I Remember Wes
EXTD=
EXTT0=
EXTT1=
EXTT2=
EXTT3=
EXTT4=
EXTT5=
EXTT6=
PLAYORDER=
